<?xml version="1.0" standalone="no"?>
<!DOCTYPE svg PUBLIC "-//W3C//DTD SVG 20010904//EN"
 "http://www.w3.org/TR/2001/REC-SVG-20010904/DTD/svg10.dtd">
<svg version="1.0" xmlns="http://www.w3.org/2000/svg"
 width="126.000000pt" height="106.000000pt" viewBox="0 0 126.000000 106.000000"
 preserveAspectRatio="xMidYMid meet">

<g transform="translate(0.000000,106.000000) scale(0.100000,-0.100000)"
fill="#000000" stroke="none">
<path d="M580 940 c0 -5 5 -10 10 -10 6 0 10 5 10 10 0 6 -4 10 -10 10 -5 0
-10 -4 -10 -10z"/>
<path d="M505 841 c-52 -23 -92 -71 -106 -126 -9 -37 -15 -44 -42 -49 -147
-29 -202 -224 -93 -325 22 -21 26 -33 26 -83 l0 -58 145 0 145 0 0 40 c0 36 3
40 25 40 23 0 25 -4 25 -40 l0 -40 45 0 45 0 0 40 c0 36 3 40 25 40 23 0 25
-4 25 -40 l0 -40 45 0 45 0 0 40 c0 38 2 40 30 40 28 0 30 -2 30 -40 l0 -40
40 0 40 0 0 49 c0 44 3 51 36 76 112 86 92 259 -38 326 -28 14 -58 19 -126 19
l-89 0 -7 40 c-7 47 -65 116 -113 137 -45 18 -110 16 -158 -6z m185 -25 c39
-25 80 -95 80 -134 0 -21 4 -22 88 -22 128 -1 190 -34 227 -124 29 -68 -1
-163 -62 -204 l-23 -14 0 91 0 91 -40 0 -40 0 0 -100 0 -100 -30 0 -30 0 0 70
0 70 -45 0 -45 0 0 -70 c0 -68 -1 -70 -25 -70 -23 0 -25 4 -25 45 l0 45 -45 0
-45 0 0 -45 c0 -41 -2 -45 -25 -45 -25 0 -25 1 -25 90 l0 90 -145 0 -145 0 0
-70 c0 -38 -3 -70 -7 -70 -5 0 -19 16 -32 36 -36 52 -40 136 -9 189 28 48 75
81 128 90 36 6 40 10 40 36 0 57 44 114 110 144 47 21 122 13 170 -19z m298
-468 l-3 -133 -27 -3 -28 -3 0 135 0 136 30 0 31 0 -3 -132z m-428 -8 l0 -131
-127 3 -128 3 -3 114 c-1 63 0 121 2 128 4 10 37 13 131 13 l125 0 0 -130z
m285 -20 l0 -105 -27 -3 -28 -3 0 111 0 111 28 -3 27 -3 0 -105z m-145 -26 l0
-85 -27 3 c-27 3 -28 5 -31 72 -4 84 0 96 33 96 25 0 25 -1 25 -86z"/>
<path d="M508 757 c-26 -24 -44 -64 -34 -74 2 -3 11 10 19 28 13 31 35 48 77
62 8 3 3 6 -11 6 -14 1 -37 -10 -51 -22z"/>
<path d="M415 400 c-23 -25 -16 -52 18 -68 15 -7 27 -17 27 -23 0 -16 -29 -22
-45 -9 -20 17 -19 1 1 -21 15 -16 17 -16 35 -1 28 24 23 49 -11 67 -16 9 -30
20 -30 26 0 16 29 22 45 9 8 -7 15 -8 15 -3 0 5 -9 16 -19 25 -18 15 -21 15
-36 -2z"/>
<path d="M841 783 c-1 -6 -11 -13 -23 -16 -21 -3 -21 -4 -5 -12 21 -9 42 7 34
27 -3 8 -6 9 -6 1z"/>
</g>
</svg>
